<svg width="16" height="17" viewBox="0 0 16 17" fill="none" xmlns="http://www.w3.org/2000/svg">
<g clip-path="url(#clip0_184_685)">
<mask id="mask0_184_685" style="mask-type:luminance" maskUnits="userSpaceOnUse" x="0" y="0" width="16" height="17">
<rect y="0.0603027" width="16" height="16" fill="white"/>
</mask>
<g mask="url(#mask0_184_685)">
<path d="M8 2.0603C4.6875 2.0603 2 4.7478 2 8.0603C2 11.3728 4.6875 14.0603 8 14.0603C11.3125 14.0603 14 11.3728 14 8.0603C14 4.7478 11.3125 2.0603 8 2.0603" stroke="#6B7280"/>
<path d="M9 4.0603C9 3.50802 8.55228 3.0603 8 3.0603V4.0603H9ZM9 8.5603V4.0603H8V8.5603H9ZM8 9.5603C8.55228 9.5603 9 9.11259 9 8.5603H8V9.5603ZM7 8.5603C7 9.11259 7.44772 9.5603 8 9.5603V8.5603H7ZM7 4.0603V8.5603H8V4.0603H7ZM8 3.0603C7.44772 3.0603 7 3.50802 7 4.0603H8V3.0603ZM8 7.5603C7.44772 7.5603 7 8.00802 7 8.5603H8V7.5603ZM11 7.5603H8V8.5603H11V7.5603ZM12 8.5603C12 8.00802 11.5523 7.5603 11 7.5603V8.5603H12ZM11 9.5603C11.5523 9.5603 12 9.11259 12 8.5603H11V9.5603ZM8 9.5603H11V8.5603H8V9.5603ZM7 8.5603C7 9.11259 7.44772 9.5603 8 9.5603V8.5603H7Z" fill="#6B7280"/>
</g>
</g>
<defs>
<clipPath id="clip0_184_685">
<rect width="16" height="16" fill="white" transform="translate(0 0.0603027)"/>
</clipPath>
</defs>
</svg>
