<svg width="24" height="25" viewBox="0 0 24 25" fill="none" xmlns="http://www.w3.org/2000/svg">
<g clip-path="url(#clip0_184_674)">
<mask id="mask0_184_674" style="mask-type:luminance" maskUnits="userSpaceOnUse" x="0" y="0" width="24" height="25">
<rect y="0.0603027" width="24" height="24" fill="white"/>
</mask>
<g mask="url(#mask0_184_674)">
<path fill-rule="evenodd" clip-rule="evenodd" d="M12 2.3103C6.62391 2.3103 2.25 6.68421 2.25 12.0603C2.25 17.4364 6.62391 21.8103 12 21.8103C17.3761 21.8103 21.75 17.4364 21.75 12.0603C21.75 6.68421 17.3761 2.3103 12 2.3103ZM17.0742 8.79265L10.7742 16.2926C10.6344 16.4592 10.4292 16.5569 10.2117 16.5603H10.1991C9.98647 16.5602 9.78389 16.4699 9.64172 16.3119L6.94172 13.3119C6.75506 13.1139 6.69027 12.8303 6.77242 12.5709C6.85456 12.3115 7.07077 12.117 7.33736 12.0625C7.60396 12.0081 7.87913 12.1023 8.05641 12.3087L10.1794 14.6675L15.9258 7.82796C16.194 7.51787 16.6615 7.48062 16.9754 7.74432C17.2894 8.00802 17.3334 8.47494 17.0742 8.79265Z" fill="#22C55E"/>
</g>
</g>
<defs>
<clipPath id="clip0_184_674">
<rect width="24" height="24" fill="white" transform="translate(0 0.0603027)"/>
</clipPath>
</defs>
</svg>
