<svg width="25" height="25" viewBox="0 0 25 25" fill="none" xmlns="http://www.w3.org/2000/svg">
<mask id="mask0_184_482" style="mask-type:luminance" maskUnits="userSpaceOnUse" x="0" y="0" width="25" height="25">
<path d="M0.429688 0.288208H24.4297V24.2882H0.429688V0.288208Z" fill="white"/>
</mask>
<g mask="url(#mask0_184_482)">
<path d="M22.9297 17.1632V1.41321C22.9297 0.78977 22.4281 0.288208 21.8047 0.288208H6.42969C3.94531 0.288208 1.92969 2.30383 1.92969 4.78821V19.7882C1.92969 22.2726 3.94531 24.2882 6.42969 24.2882H21.8047C22.4281 24.2882 22.9297 23.7866 22.9297 23.1632V22.4132C22.9297 22.0616 22.7656 21.7429 22.5125 21.5366C22.3156 20.8148 22.3156 18.757 22.5125 18.0351C22.7656 17.8335 22.9297 17.5148 22.9297 17.1632ZM7.92969 6.56946C7.92969 6.41477 8.05625 6.28821 8.21094 6.28821H18.1485C18.3031 6.28821 18.4297 6.41477 18.4297 6.56946V7.50696C18.4297 7.66165 18.3031 7.78821 18.1485 7.78821H8.21094C8.05625 7.78821 7.92969 7.66165 7.92969 7.50696V6.56946ZM7.92969 9.56946C7.92969 9.41477 8.05625 9.28821 8.21094 9.28821H18.1485C18.3031 9.28821 18.4297 9.41477 18.4297 9.56946V10.507C18.4297 10.6616 18.3031 10.7882 18.1485 10.7882H8.21094C8.05625 10.7882 7.92969 10.6616 7.92969 10.507V9.56946ZM19.8078 21.2882H6.42969C5.6 21.2882 4.92969 20.6179 4.92969 19.7882C4.92969 18.9632 5.60469 18.2882 6.42969 18.2882H19.8078C19.7188 19.0898 19.7188 20.4866 19.8078 21.2882Z" fill="#16A34A"/>
</g>
</svg>
