<svg width="40" height="41" viewBox="0 0 40 41" fill="none" xmlns="http://www.w3.org/2000/svg">
<g clip-path="url(#clip0_184_502)">
<rect y="0.0603027" width="40" height="40" rx="20" fill="#DBEAFE"/>
<g clip-path="url(#clip1_184_502)">
<mask id="mask0_184_502" style="mask-type:luminance" maskUnits="userSpaceOnUse" x="10" y="10" width="20" height="21">
<rect x="10" y="10.0603" width="20" height="20" fill="white"/>
</mask>
<g mask="url(#mask0_184_502)">
<path fill-rule="evenodd" clip-rule="evenodd" d="M28.75 29.2791V30.0603H11.25V29.2791C11.25 29.0202 11.4599 28.8103 11.7188 28.8103H12.5V14.7478C12.5 14.23 12.9197 13.8103 13.4375 13.8103H16.875V10.9978C16.875 10.48 17.2947 10.0603 17.8125 10.0603H22.1875C22.7053 10.0603 23.125 10.48 23.125 10.9978V13.8103H26.5625C27.0803 13.8103 27.5 14.23 27.5 14.7478V28.8103H28.2812C28.5401 28.8103 28.75 29.0202 28.75 29.2791M23.2812 17.5603H21.7188C21.4599 17.5603 21.25 17.7702 21.25 18.0291V19.5916C21.25 19.8504 21.4599 20.0603 21.7188 20.0603H23.2812C23.5401 20.0603 23.75 19.8504 23.75 19.5916V18.0291C23.75 17.7702 23.5401 17.5603 23.2812 17.5603M16.7188 20.0603H18.2812C18.5401 20.0603 18.75 19.8504 18.75 19.5916V18.0291C18.75 17.7702 18.5401 17.5603 18.2812 17.5603H16.7188C16.4599 17.5603 16.25 17.7702 16.25 18.0291V19.5916C16.25 19.8504 16.4599 20.0603 16.7188 20.0603M20.7812 25.0603H19.2188C18.9599 25.0603 18.75 25.2702 18.75 25.5291V28.8103H21.25V25.5291C21.25 25.2702 21.0401 25.0603 20.7812 25.0603M23.2812 21.3103H21.7188C21.4599 21.3103 21.25 21.5202 21.25 21.7791V23.3416C21.25 23.6004 21.4599 23.8103 21.7188 23.8103H23.2812C23.5401 23.8103 23.75 23.6004 23.75 23.3416V21.7791C23.75 21.5202 23.5401 21.3103 23.2812 21.3103M18.75 21.7791C18.75 21.5202 18.5401 21.3103 18.2812 21.3103H16.7188C16.4599 21.3103 16.25 21.5202 16.25 21.7791V23.3416C16.25 23.6004 16.4599 23.8103 16.7188 23.8103H18.2812C18.5401 23.8103 18.75 23.6004 18.75 23.3416V21.7791M18.3594 13.8103H19.375V14.8259C19.375 14.9553 19.48 15.0603 19.6094 15.0603H20.3906C20.52 15.0603 20.625 14.9553 20.625 14.8259V13.8103H21.6406C21.77 13.8103 21.875 13.7053 21.875 13.5759V12.7947C21.875 12.6653 21.77 12.5603 21.6406 12.5603H20.625V11.5447C20.625 11.4153 20.52 11.3103 20.3906 11.3103H19.6094C19.48 11.3103 19.375 11.4153 19.375 11.5447V12.5603H18.3594C18.23 12.5603 18.125 12.6653 18.125 12.7947V13.5759C18.125 13.7053 18.23 13.8103 18.3594 13.8103" fill="#2563EB"/>
</g>
</g>
</g>
<defs>
<clipPath id="clip0_184_502">
<rect width="40" height="40" fill="white" transform="translate(0 0.0603027)"/>
</clipPath>
<clipPath id="clip1_184_502">
<rect width="20" height="20" fill="white" transform="translate(10 10.0603)"/>
</clipPath>
</defs>
</svg>
