<svg width="25" height="25" viewBox="0 0 25 25" fill="none" xmlns="http://www.w3.org/2000/svg">
<mask id="mask0_184_445" style="mask-type:luminance" maskUnits="userSpaceOnUse" x="0" y="0" width="25" height="25">
<path d="M0.268555 0.258057H24.2686V24.2581H0.268555V0.258057Z" fill="white"/>
</mask>
<g mask="url(#mask0_184_445)">
<path d="M19.0186 3.25806H15.2686C15.2686 1.60337 13.9233 0.258057 12.2686 0.258057C10.6139 0.258057 9.26855 1.60337 9.26855 3.25806H5.51855C4.27636 3.25806 3.26855 4.26587 3.26855 5.50806V22.0081C3.26855 23.2503 4.27636 24.2581 5.51855 24.2581H19.0186C20.2608 24.2581 21.2686 23.2503 21.2686 22.0081V5.50806C21.2686 4.26587 20.2608 3.25806 19.0186 3.25806ZM12.2686 2.13306C12.892 2.13306 13.3936 2.63462 13.3936 3.25806C13.3936 3.8815 12.892 4.38306 12.2686 4.38306C11.6452 4.38306 11.1436 3.8815 11.1436 3.25806C11.1436 2.63462 11.6452 2.13306 12.2686 2.13306ZM17.9498 12.9987L11.2467 19.6456C11.0264 19.8659 10.6702 19.8612 10.4498 19.6409L6.57792 15.7362C6.35761 15.5159 6.3623 15.1597 6.58261 14.9393L7.91386 13.6175C8.13417 13.3972 8.49043 13.4019 8.71074 13.6222L10.867 15.7972L15.8358 10.8659C16.0561 10.6456 16.4124 10.6503 16.6327 10.8706L17.9545 12.2019C18.1748 12.4269 18.1702 12.7784 17.9498 12.9987Z" fill="#2563EB"/>
</g>
</svg>
