<svg width="24" height="24" viewBox="0 0 24 24" fill="none" xmlns="http://www.w3.org/2000/svg">
<path d="M18.0983 11.0992C17.7084 11.0992 17.385 10.7758 17.385 10.3859V8.48366C17.385 5.48766 16.5385 3.49033 12.3917 3.49033C8.24484 3.49033 7.39835 5.48766 7.39835 8.48366V10.3859C7.39835 10.7758 7.07497 11.0992 6.68501 11.0992C6.29506 11.0992 5.97168 10.7758 5.97168 10.3859V8.48366C5.97168 5.72544 6.63746 2.06366 12.3917 2.06366C18.1459 2.06366 18.8117 5.72544 18.8117 8.48366V10.3859C18.8117 10.7758 18.4883 11.0992 18.0983 11.0992Z" fill="#2563EB"/>
<path d="M17.148 22.5124H7.63686C3.44246 22.5124 2.16797 21.2379 2.16797 17.0435V15.1413C2.16797 10.9469 3.44246 9.67236 7.63686 9.67236H17.148C21.3424 9.67236 22.6169 10.9469 22.6169 15.1413V17.0435C22.6169 21.2379 21.3424 22.5124 17.148 22.5124ZM7.63686 11.099C4.23188 11.099 3.59464 11.7458 3.59464 15.1413V17.0435C3.59464 20.4389 4.23188 21.0857 7.63686 21.0857H17.148C20.5529 21.0857 21.1902 20.4389 21.1902 17.0435V15.1413C21.1902 11.7458 20.5529 11.099 17.148 11.099H7.63686Z" fill="#2563EB"/>
<path d="M8.58685 17.0436C8.46321 17.0436 8.33956 17.0151 8.22543 16.9676C8.10178 16.92 8.00668 16.8534 7.91157 16.7678C7.74037 16.5871 7.63574 16.3493 7.63574 16.0925C7.63574 15.9689 7.66426 15.8452 7.71182 15.7311C7.75937 15.6074 7.82597 15.5123 7.91157 15.4172C8.00668 15.3316 8.10178 15.265 8.22543 15.2175C8.56783 15.0653 8.99582 15.1509 9.26213 15.4172C9.34773 15.5123 9.41433 15.617 9.46189 15.7311C9.50944 15.8452 9.53796 15.9689 9.53796 16.0925C9.53796 16.3398 9.43333 16.5871 9.26213 16.7678C9.08142 16.939 8.83414 17.0436 8.58685 17.0436Z" fill="#2563EB"/>
<path d="M12.3925 17.0436C12.1452 17.0436 11.8979 16.9389 11.7172 16.7677C11.546 16.587 11.4414 16.3493 11.4414 16.0925C11.4414 15.9688 11.4604 15.8452 11.5175 15.731C11.565 15.6169 11.6316 15.5123 11.7172 15.4172C11.936 15.1984 12.2689 15.0938 12.5732 15.1604C12.6398 15.1699 12.6969 15.1889 12.7539 15.2174C12.811 15.2364 12.8681 15.265 12.9251 15.3031C12.9727 15.3316 13.0202 15.3791 13.0678 15.4172C13.1534 15.5123 13.22 15.6169 13.2676 15.731C13.3151 15.8452 13.3436 15.9688 13.3436 16.0925C13.3436 16.3493 13.239 16.587 13.0678 16.7677C13.0202 16.8058 12.9727 16.8438 12.9251 16.8819C12.8681 16.9199 12.811 16.9485 12.7539 16.9675C12.6969 16.996 12.6398 17.015 12.5732 17.0246C12.5162 17.0341 12.4496 17.0436 12.3925 17.0436Z" fill="#2563EB"/>
<path d="M16.1962 17.0436C15.9394 17.0436 15.7017 16.9389 15.5209 16.7677C15.4353 16.6726 15.3687 16.568 15.3212 16.4539C15.2736 16.3398 15.2451 16.2161 15.2451 16.0925C15.2451 15.8452 15.3497 15.5979 15.5209 15.4172C15.5685 15.3791 15.6161 15.3411 15.6636 15.3031C15.7207 15.265 15.7777 15.2364 15.8348 15.2174C15.8919 15.1889 15.9489 15.1699 16.006 15.1604C16.3199 15.0938 16.6432 15.1984 16.8715 15.4172C17.0427 15.5979 17.1473 15.8357 17.1473 16.0925C17.1473 16.2161 17.1188 16.3398 17.0713 16.4539C17.0237 16.5775 16.9571 16.6726 16.8715 16.7677C16.6908 16.9389 16.4435 17.0436 16.1962 17.0436Z" fill="#2563EB"/>
</svg>
