<svg width="20" height="21" viewBox="0 0 20 21" fill="none" xmlns="http://www.w3.org/2000/svg">
<g clip-path="url(#clip0_184_826)">
<mask id="mask0_184_826" style="mask-type:luminance" maskUnits="userSpaceOnUse" x="0" y="0" width="20" height="21">
<rect y="0.685303" width="20" height="20" fill="white"/>
</mask>
<g mask="url(#mask0_184_826)">
<path d="M7.85041 4.39739L7.1875 5.0603L7.85041 4.39739ZM13.4754 10.0224L14.1383 9.35948L14.1383 9.35948L13.4754 10.0224ZM13.4754 11.3482L14.1383 12.0111L14.1383 12.0111L13.4754 11.3482ZM12.1496 11.3482L11.4867 12.0111L11.4867 12.0111L12.1496 11.3482ZM6.52459 5.72322L7.1875 5.0603L6.52459 5.72322ZM13.4754 11.3482L14.1383 12.0111V12.0111L13.4754 11.3482ZM13.4754 10.0224L14.1383 9.35948V9.35948L13.4754 10.0224ZM7.85041 16.9732L8.51332 17.6361H8.51333L7.85041 16.9732ZM6.52459 16.9732L5.86167 17.6361H5.86168L6.52459 16.9732ZM8.51333 3.73448C7.78109 3.00224 6.59391 3.00224 5.86167 3.73448L7.1875 5.0603L8.51333 3.73448ZM14.1383 9.35948L8.51333 3.73448L7.1875 5.0603L12.8125 10.6853L14.1383 9.35948ZM14.1383 12.0111C14.8706 11.2789 14.8706 10.0917 14.1383 9.35948L12.8125 10.6853V10.6853L14.1383 12.0111ZM11.4867 12.0111C12.2189 12.7434 13.4061 12.7434 14.1383 12.0111L12.8125 10.6853H12.8125L11.4867 12.0111ZM5.86167 6.38613L11.4867 12.0111L12.8125 10.6853L7.1875 5.0603L5.86167 6.38613ZM5.86167 3.73448C5.12944 4.46671 5.12944 5.65389 5.86167 6.38613L7.1875 5.0603L5.86167 3.73448ZM14.1383 12.0111C14.8706 11.2789 14.8706 10.0917 14.1383 9.35948L12.8125 10.6853V10.6853L14.1383 12.0111ZM8.51333 17.6361L14.1383 12.0111L12.8125 10.6853L7.1875 16.3103L8.51333 17.6361ZM5.86168 17.6361C6.59391 18.3684 7.78109 18.3684 8.51332 17.6361L7.1875 16.3103H7.1875L5.86168 17.6361ZM5.86167 14.9845C5.12944 15.7167 5.12944 16.9039 5.86167 17.6361L7.1875 16.3103L5.86167 14.9845ZM11.4867 9.35948L5.86167 14.9845L7.1875 16.3103L12.8125 10.6853L11.4867 9.35948ZM14.1383 9.35948C13.4061 8.62724 12.2189 8.62724 11.4867 9.35948L12.8125 10.6853L14.1383 9.35948Z" fill="#9CA3AF"/>
</g>
</g>
<defs>
<clipPath id="clip0_184_826">
<rect width="20" height="20" fill="white" transform="translate(0 0.685303)"/>
</clipPath>
</defs>
</svg>
