<svg width="25" height="24" viewBox="0 0 25 24" fill="none" xmlns="http://www.w3.org/2000/svg">
<path d="M19.3184 21.3782H6.26143C5.43242 21.3782 4.70703 20.6528 4.70703 19.8238V3.5544C4.70703 2.72539 5.43242 2 6.26143 2H19.3184C20.1474 2 20.8728 2.72539 20.8728 3.5544V19.8238C20.8728 20.7564 20.1474 21.3782 19.3184 21.3782Z" stroke="#B8B8D2" stroke-width="2.07254" stroke-miterlimit="10"/>
<path d="M9.47377 9.87576C10.0461 9.87576 10.51 9.41181 10.51 8.83949C10.51 8.26718 10.0461 7.80322 9.47377 7.80322C8.90145 7.80322 8.4375 8.26718 8.4375 8.83949C8.4375 9.41181 8.90145 9.87576 9.47377 9.87576Z" fill="#B8B8D2"/>
<path d="M12.375 8.83936H16.6237" stroke="#B8B8D2" stroke-width="2.07254" stroke-miterlimit="10"/>
<path d="M9.47377 15.575C10.0461 15.575 10.51 15.111 10.51 14.5387C10.51 13.9664 10.0461 13.5024 9.47377 13.5024C8.90145 13.5024 8.4375 13.9664 8.4375 14.5387C8.4375 15.111 8.90145 15.575 9.47377 15.575Z" fill="#B8B8D2"/>
<path d="M12.375 14.5388H16.6237" stroke="#B8B8D2" stroke-width="2.07254" stroke-miterlimit="10"/>
</svg>
