<svg width="25" height="25" viewBox="0 0 25 25" fill="none" xmlns="http://www.w3.org/2000/svg">
<mask id="mask0_184_456" style="mask-type:luminance" maskUnits="userSpaceOnUse" x="0" y="0" width="25" height="25">
<path d="M0.418945 0.258057H24.4189V24.2581H0.418945V0.258057Z" fill="white"/>
</mask>
<g mask="url(#mask0_184_456)">
<path d="M20.6689 10.6292V19.7581C20.6689 20.1645 20.5902 20.5537 20.4326 20.9259C20.2808 21.2847 20.0665 21.6025 19.7899 21.8791C19.5133 22.1557 19.1956 22.3699 18.8367 22.5218C18.4646 22.6793 18.0753 22.7581 17.6689 22.7581H7.16895C6.76253 22.7581 6.37327 22.6793 6.00116 22.5218C5.64226 22.3699 5.32452 22.1557 5.04794 21.8791C4.77136 21.6025 4.55711 21.2847 4.4052 20.9259C4.2477 20.5537 4.16895 20.1645 4.16895 19.7581V4.75806C4.16895 4.35164 4.2477 3.96238 4.4052 3.59027C4.55711 3.23137 4.77136 2.91363 5.04794 2.63705C5.32452 2.36047 5.64226 2.14622 6.00116 1.99431C6.37327 1.83681 6.76253 1.75806 7.16895 1.75806H11.7978C12.0962 1.7581 12.3831 1.8152 12.6587 1.92935C12.9343 2.04349 13.1775 2.20601 13.3884 2.41689L20.01 9.03851C20.221 9.24948 20.3835 9.49274 20.4976 9.7683C20.6118 10.0439 20.6689 10.3309 20.6689 10.6292L19.1689 10.6293C19.1689 10.4223 19.0958 10.2456 18.9494 10.0992L12.3278 3.47767C12.1814 3.33129 12.0048 3.25809 11.7978 3.25806H7.16895C6.75515 3.25806 6.4017 3.40461 6.1086 3.69771C5.8155 3.99081 5.66895 4.34426 5.66895 4.75806V19.7581C5.66895 20.1719 5.8155 20.5253 6.1086 20.8184C6.4017 21.1115 6.75515 21.2581 7.16895 21.2581H17.6689C18.0827 21.2581 18.4362 21.1115 18.7292 20.8184C19.0224 20.5253 19.1689 20.1719 19.1689 19.7581V10.6293L20.6689 10.6292Z" fill="#9333EA"/>
<path fill-rule="evenodd" clip-rule="evenodd" d="M12.4189 2.13306C12.0047 2.13306 11.6689 2.46885 11.6689 2.88306V8.50806C11.6689 8.81282 11.728 9.10481 11.8462 9.38403C11.9602 9.65321 12.1208 9.89148 12.3281 10.0988C12.5355 10.3062 12.7738 10.4668 13.0429 10.5808C13.3222 10.699 13.6142 10.7581 13.9189 10.7581H19.5439C19.9581 10.7581 20.2939 10.4223 20.2939 10.0081C20.2939 9.59385 19.9581 9.25806 19.5439 9.25806H13.9189C13.7121 9.25806 13.5354 9.18476 13.3888 9.03818C13.2422 8.8916 13.1689 8.71489 13.1689 8.50806V2.88306C13.1689 2.46885 12.8331 2.13306 12.4189 2.13306ZM7.91895 13.7581C7.91895 14.1723 8.25474 14.5081 8.66895 14.5081H16.1689C16.5831 14.5081 16.9189 14.1723 16.9189 13.7581C16.9189 13.3439 16.5831 13.0081 16.1689 13.0081H8.66895C8.25474 13.0081 7.91895 13.3439 7.91895 13.7581ZM7.91895 17.5081C7.91895 17.9223 8.25474 18.2581 8.66895 18.2581H16.1689C16.5831 18.2581 16.9189 17.9223 16.9189 17.5081C16.9189 17.0939 16.5831 16.7581 16.1689 16.7581H8.66895C8.25474 16.7581 7.91895 17.0939 7.91895 17.5081Z" fill="#9333EA"/>
</g>
</svg>
