<svg width="25" height="24" viewBox="0 0 25 24" fill="none" xmlns="http://www.w3.org/2000/svg">
<mask id="mask0_184_841" style="mask-type:luminance" maskUnits="userSpaceOnUse" x="0" y="0" width="25" height="24">
<path d="M0.560547 0H24.5605V24H0.560547V0Z" fill="white"/>
</mask>
<g mask="url(#mask0_184_841)">
<path d="M5.06055 3H20.0605C20.4669 3 20.8562 3.07875 21.2283 3.23625C21.5872 3.38816 21.9049 3.60241 22.1815 3.87899C22.4581 4.15558 22.6724 4.47332 22.8242 4.83221C22.9818 5.20432 23.0605 5.59359 23.0605 6V19.5C23.0605 19.9064 22.9818 20.2957 22.8242 20.6678C22.6724 21.0267 22.4581 21.3444 22.1815 21.621C21.9049 21.8976 21.5872 22.1118 21.2283 22.2637C20.8562 22.4212 20.4669 22.5 20.0605 22.5H5.06055C4.65413 22.5 4.26487 22.4212 3.89276 22.2637C3.53386 22.1118 3.21612 21.8976 2.93954 21.621C2.66296 21.3444 2.44871 21.0267 2.2968 20.6678C2.1393 20.2957 2.06055 19.9064 2.06055 19.5V6C2.06055 5.59359 2.1393 5.20432 2.2968 4.83221C2.44871 4.47332 2.66296 4.15558 2.93954 3.87899C3.21612 3.60241 3.53386 3.38816 3.89276 3.23625C4.26487 3.07875 4.65413 3 5.06055 3V4.5C4.64675 4.5 4.2933 4.64655 4.0002 4.93965C3.7071 5.23275 3.56055 5.5862 3.56055 6V19.5C3.56055 19.9138 3.7071 20.2672 4.0002 20.5603C4.2933 20.8534 4.64675 21 5.06055 21H20.0605C20.4743 21 20.8278 20.8534 21.1208 20.5603C21.414 20.2672 21.5605 19.9138 21.5605 19.5V6C21.5605 5.5862 21.414 5.23275 21.1208 4.93965C20.8278 4.64655 20.4743 4.5 20.0605 4.5H5.06055V3Z" fill="#B8B8D2"/>
<path d="M14.4355 9.75C13.8146 9.75 13.3105 10.2541 13.3105 10.875C13.3105 11.4959 13.8146 12 14.4355 12C15.0564 12 15.5605 11.4959 15.5605 10.875C15.5605 10.2541 15.0564 9.75 14.4355 9.75Z" fill="#B8B8D2"/>
<path d="M18.1855 9.75C17.5646 9.75 17.0605 10.2541 17.0605 10.875C17.0605 11.4959 17.5646 12 18.1855 12C18.8064 12 19.3105 11.4959 19.3105 10.875C19.3105 10.2541 18.8064 9.75 18.1855 9.75Z" fill="#B8B8D2"/>
<path d="M14.4355 13.5C13.8146 13.5 13.3105 14.0041 13.3105 14.625C13.3105 15.2459 13.8146 15.75 14.4355 15.75C15.0564 15.75 15.5605 15.2459 15.5605 14.625C15.5605 14.0041 15.0564 13.5 14.4355 13.5Z" fill="#B8B8D2"/>
<path d="M18.1855 13.5C17.5646 13.5 17.0605 14.0041 17.0605 14.625C17.0605 15.2459 17.5646 15.75 18.1855 15.75C18.8064 15.75 19.3105 15.2459 19.3105 14.625C19.3105 14.0041 18.8064 13.5 18.1855 13.5Z" fill="#B8B8D2"/>
<path d="M6.93555 13.5C6.31465 13.5 5.81055 14.0041 5.81055 14.625C5.81055 15.2459 6.31465 15.75 6.93555 15.75C7.55645 15.75 8.06055 15.2459 8.06055 14.625C8.06055 14.0041 7.55645 13.5 6.93555 13.5Z" fill="#B8B8D2"/>
<path d="M10.6855 13.5C10.0646 13.5 9.56055 14.0041 9.56055 14.625C9.56055 15.2459 10.0646 15.75 10.6855 15.75C11.3064 15.75 11.8105 15.2459 11.8105 14.625C11.8105 14.0041 11.3064 13.5 10.6855 13.5Z" fill="#B8B8D2"/>
<path d="M6.93555 17.25C6.31465 17.25 5.81055 17.7541 5.81055 18.375C5.81055 18.9959 6.31465 19.5 6.93555 19.5C7.55645 19.5 8.06055 18.9959 8.06055 18.375C8.06055 17.7541 7.55645 17.25 6.93555 17.25Z" fill="#B8B8D2"/>
<path d="M10.6855 17.25C10.0646 17.25 9.56055 17.7541 9.56055 18.375C9.56055 18.9959 10.0646 19.5 10.6855 19.5C11.3064 19.5 11.8105 18.9959 11.8105 18.375C11.8105 17.7541 11.3064 17.25 10.6855 17.25Z" fill="#B8B8D2"/>
<path d="M14.4355 17.25C13.8146 17.25 13.3105 17.7541 13.3105 18.375C13.3105 18.9959 13.8146 19.5 14.4355 19.5C15.0564 19.5 15.5605 18.9959 15.5605 18.375C15.5605 17.7541 15.0564 17.25 14.4355 17.25Z" fill="#B8B8D2"/>
<path fill-rule="evenodd" clip-rule="evenodd" d="M6.56055 1.5C6.14634 1.5 5.81055 1.83579 5.81055 2.25V3.75C5.81055 4.16421 6.14634 4.5 6.56055 4.5C6.97476 4.5 7.31055 4.16421 7.31055 3.75V2.25C7.31055 1.83579 6.97476 1.5 6.56055 1.5ZM18.5605 1.5C18.1463 1.5 17.8105 1.83579 17.8105 2.25V3.75C17.8105 4.16421 18.1463 4.5 18.5605 4.5C18.9747 4.5 19.3105 4.16421 19.3105 3.75V2.25C19.3105 1.83579 18.9747 1.5 18.5605 1.5Z" fill="#B8B8D2"/>
<path d="M22.3105 8.25H2.81055V6.75H22.3105V8.25Z" fill="#B8B8D2"/>
</g>
</svg>
