<svg width="24" height="24" viewBox="0 0 24 24" fill="none" xmlns="http://www.w3.org/2000/svg">
<path d="M17.148 20.6805H7.63686C7.2469 20.6805 6.92352 20.3571 6.92352 19.9672C6.92352 19.5772 7.2469 19.2538 7.63686 19.2538H17.148C19.8681 19.2538 21.1902 17.9318 21.1902 15.2116V8.55382C21.1902 5.83364 19.8681 4.5116 17.148 4.5116H7.63686C4.91668 4.5116 3.59464 5.83364 3.59464 8.55382C3.59464 8.94378 3.27126 9.26715 2.8813 9.26715C2.49135 9.26715 2.16797 8.94378 2.16797 8.55382C2.16797 5.08226 4.1653 3.08493 7.63686 3.08493H17.148C20.6195 3.08493 22.6169 5.08226 22.6169 8.55382V15.2116C22.6169 18.6832 20.6195 20.6805 17.148 20.6805Z" fill="#2563EB"/>
<path d="M12.3924 12.7101C11.5934 12.7101 10.785 12.4628 10.1668 11.9587L7.18978 9.58092C6.88543 9.33363 6.82837 8.8866 7.07565 8.58225C7.32294 8.27789 7.76995 8.22083 8.07431 8.46812L11.0513 10.8459C11.7741 11.4261 13.0011 11.4261 13.7239 10.8459L16.7009 8.46812C17.0052 8.22083 17.4618 8.26838 17.6995 8.58225C17.9468 8.8866 17.8993 9.34314 17.5854 9.58092L14.6084 11.9587C13.9997 12.4628 13.1913 12.7101 12.3924 12.7101Z" fill="#2563EB"/>
<path d="M8.58797 16.8759H2.8813C2.49135 16.8759 2.16797 16.5526 2.16797 16.1626C2.16797 15.7727 2.49135 15.4493 2.8813 15.4493H8.58797C8.97792 15.4493 9.3013 15.7727 9.3013 16.1626C9.3013 16.5526 8.97792 16.8759 8.58797 16.8759Z" fill="#2563EB"/>
<path d="M5.73464 13.0716H2.8813C2.49135 13.0716 2.16797 12.7482 2.16797 12.3583C2.16797 11.9683 2.49135 11.6449 2.8813 11.6449H5.73464C6.12459 11.6449 6.44797 11.9683 6.44797 12.3583C6.44797 12.7482 6.12459 13.0716 5.73464 13.0716Z" fill="#2563EB"/>
</svg>
