<svg width="25" height="25" viewBox="0 0 25 25" fill="none" xmlns="http://www.w3.org/2000/svg">
<mask id="mask0_184_470" style="mask-type:luminance" maskUnits="userSpaceOnUse" x="0" y="0" width="25" height="25">
<path d="M0.257812 0.288177H24.2578V24.2882H0.257812V0.288177Z" fill="white"/>
</mask>
<g mask="url(#mask0_184_470)">
<path d="M23.9877 19.9554C24.7568 21.2885 23.7914 22.9549 22.2553 22.9549H2.26007C0.721032 22.9549 -0.239884 21.2859 0.527699 19.9554L10.5254 2.6209C11.2949 1.28719 13.2221 1.28961 13.9902 2.6209L23.9877 19.9554ZM12.2578 16.3715C11.1993 16.3715 10.3411 17.2297 10.3411 18.2882C10.3411 19.3467 11.1993 20.2049 12.2578 20.2049C13.3163 20.2049 14.1745 19.3467 14.1745 18.2882C14.1745 17.2297 13.3163 16.3715 12.2578 16.3715ZM10.4381 9.48211L10.7472 15.1488C10.7616 15.4139 10.9809 15.6215 11.2464 15.6215H13.2692C13.5347 15.6215 13.754 15.4139 13.7684 15.1488L14.0775 9.48211C14.0931 9.19569 13.8651 8.95486 13.5783 8.95486H10.9373C10.6505 8.95486 10.4225 9.19569 10.4381 9.48211Z" fill="#EA580C"/>
</g>
</svg>
