<svg width="24" height="25" viewBox="0 0 24 25" fill="none" xmlns="http://www.w3.org/2000/svg">
<g clip-path="url(#clip0_184_696)">
<mask id="mask0_184_696" style="mask-type:luminance" maskUnits="userSpaceOnUse" x="0" y="0" width="24" height="25">
<rect y="0.0603027" width="24" height="24" fill="white"/>
</mask>
<g mask="url(#mask0_184_696)">
<path d="M4.0109 20.9783H19.9887C20.5166 20.9782 21.0056 20.7006 21.2763 20.2474C21.5469 19.7942 21.5594 19.232 21.3092 18.7672L13.3207 3.93127C12.754 2.8794 11.2456 2.8794 10.6789 3.93127L2.69043 18.7672C2.44017 19.232 2.45267 19.7942 2.72334 20.2474C2.99401 20.7006 3.483 20.9782 4.0109 20.9783" stroke="#F97316" stroke-width="1.5" stroke-linecap="round" stroke-linejoin="round"/>
<path d="M11.7305 9.21921L11.9995 14.938L12.2681 9.22156C12.2715 9.1477 12.2443 9.07572 12.193 9.02252C12.1416 8.96932 12.0706 8.93959 11.9967 8.94031V8.94031C11.9241 8.94102 11.8549 8.97105 11.8047 9.02357C11.7546 9.07609 11.7278 9.14665 11.7305 9.21921" stroke="#F97316" stroke-width="1.5" stroke-linecap="round" stroke-linejoin="round"/>
<path d="M12 18.6814C11.4826 18.6814 11.0625 18.2613 11.0625 17.7439C11.0625 17.2265 11.4826 16.8064 12 16.8064C12.5174 16.8064 12.9375 17.2265 12.9375 17.7439C12.9375 18.2613 12.5174 18.6814 12 18.6814Z" fill="#F97316"/>
</g>
</g>
<defs>
<clipPath id="clip0_184_696">
<rect width="24" height="24" fill="white" transform="translate(0 0.0603027)"/>
</clipPath>
</defs>
</svg>
